<svg xmlns="http://www.w3.org/2000/svg" viewBox="0 0 18 18">
  <path fill="currentColor" d="M9 0a9 9 0 0 0-2.845 17.54c.45.082.615-.196.615-.434 0-.214-.009-.923-.012-1.675-2.504.544-3.032-1.062-3.032-1.062-.41-1.04-1-1.317-1-1.317-.816-.559.062-.547.062-.547.904.063 1.38.927 1.38.927.802 1.376 2.105.978 2.618.749.081-.582.314-.98.572-1.204-2-.228-4.1-1-4.1-4.447 0-.983.351-1.786.927-2.416-.094-.227-.402-1.142.087-2.382 0 0 .756-.242 2.475.923.718-.2 1.488-.3 2.253-.303a8.7 8.7 0 0 1 2.255.303c1.717-1.165 2.472-.923 2.472-.923.49 1.24.182 2.155.088 2.382.577.63.926 1.433.926 2.416 0 3.456-2.105 4.217-4.109 4.44.323.28.61.827.61 1.667 0 1.204-.01 2.173-.01 2.47 0 .239.162.52.618.43A9 9 0 0 0 18 9a9 9 0 0 0-9-9M3.371 12.82c-.02.045-.09.058-.154.027-.065-.029-.102-.09-.081-.135s.09-.059.155-.028.103.091.08.136m.443.395c-.043.04-.127.021-.184-.042-.059-.062-.07-.146-.026-.187.044-.04.125-.02.184.042.06.063.07.147.026.187m.304.505c-.056.039-.146.003-.202-.077-.055-.08-.055-.176.002-.215.056-.038.144-.004.2.076.056.081.056.177 0 .216m.513.586c-.05.054-.154.04-.231-.035-.079-.072-.1-.175-.051-.23.05-.054.155-.039.233.035.078.072.102.176.049.23m.664.197c-.022.07-.123.103-.225.073s-.168-.114-.148-.185.123-.104.226-.072c.101.03.168.113.147.184m.755.084c.003.074-.084.136-.19.137-.108.003-.195-.057-.197-.13 0-.075.085-.136.193-.138.107-.002.194.057.194.131m.742-.028c.013.072-.061.147-.167.166-.105.02-.202-.025-.215-.097-.013-.074.063-.149.167-.168.107-.018.202.025.215.099"/>
</svg>
