<svg xmlns="http://www.w3.org/2000/svg" viewBox="0 0 12 12">
  <path fill="none" stroke="currentColor" stroke-width=".732" d="M10.32.676H1.68A1.08 1.08 0 0 0 .6 1.756v8.64c0 .597.484 1.08 1.08 1.08h8.64a1.08 1.08 0 0 0 1.08-1.08v-8.64a1.08 1.08 0 0 0-1.08-1.08Z"/>
  <path fill="none" stroke="currentColor" stroke-width=".732" d="M8.31 4.823a.96.96 0 1 0 0-1.92.96.96 0 0 0 0 1.92ZM.72 8.97l2.973-2.974a.406.406 0 0 1 .53-.04l3.114 2.308c.144.106.34.106.484 0L9.459 7.05a.41.41 0 0 1 .484 0l1.577 1.17"/>
</svg>
