<svg xmlns="http://www.w3.org/2000/svg" viewBox="0 0 12 12">
  <path fill="currentColor" d="M5.886 10.22a.23.23 0 0 1 .227 0l2.875 1.618a1.18 1.18 0 0 0 1.385-.153 1.16 1.16 0 0 0 .292-1.339L9.54 7.751a.23.23 0 0 1 .058-.264L11.64 5.67a1.16 1.16 0 0 0 .277-1.272 1.14 1.14 0 0 0-1.08-.706H8.53a.23.23 0 0 1-.213-.14L7.076.677 7.063.65a1.195 1.195 0 0 0-2.14.026L3.68 3.551a.23.23 0 0 1-.213.14H1.16a1.135 1.135 0 0 0-1.077.7 1.17 1.17 0 0 0 .294 1.292l2.027 1.804a.23.23 0 0 1 .058.264l-1.13 2.598a1.16 1.16 0 0 0 .29 1.34 1.18 1.18 0 0 0 1.391.152z"/>
</svg>
